<svg xmlns="http://www.w3.org/2000/svg" width="282.523" height="491.375" viewBox="0 0 282.523 491.375">
  <g id="Group_392" data-name="Group 392" transform="translate(0.502 -34.62)">
    <path id="Path_1449" data-name="Path 1449" d="M407.559,34.536V0h35.806V34.536h-35.6V69.072h-71.41V34.536Z" transform="translate(-161.344 418.986)" fill="#fff"/>
    <path id="Path_1449-2" data-name="Path 1449" d="M372.161,34.536V69.072H336.355V34.536h35.6V0h71.41V34.536Z" transform="translate(68.571 82.63) rotate(90)" fill="#fff"/>
    <rect id="Rectangle_15229" data-name="Rectangle 15229" width="35.602" height="34.536" transform="translate(70.803 384.449)" fill="#fff"/>
    <rect id="Rectangle_15229-2" data-name="Rectangle 15229" width="35.602" height="34.536" transform="translate(209.636 103.698)" fill="#fff"/>
    <path id="Path_1450" data-name="Path 1450" d="M1644.62,361.766h35.5v69.07h-35.6v-69.07h-71.306V327.23h71.408Z" transform="translate(-152.219 1924.097) rotate(-90)" fill="#fff"/>
    <path id="Path_1451" data-name="Path 1451" d="M2249.8,1016.226V981.69h35.6v34.536h35.5v34.54h-35.6V1016.23Z" transform="translate(-841.722 2493.777) rotate(-90)" fill="#fff"/>
    <rect id="Rectangle_15230" data-name="Rectangle 15230" width="35.602" height="69.072" transform="translate(70.802 208.372) rotate(-90)" fill="#fff"/>
    <path id="Path_1452" data-name="Path 1452" d="M2621.92,2360.6h-35.7v-69.072h71.408v34.542h35.5v34.536h-35.6V2326.07h-35.5v34.536h35.5v34.536h-35.6Z" transform="translate(-2586.722 -2256.908)" fill="#fff"/>
    <rect id="Rectangle_15231" data-name="Rectangle 15231" width="35.806" height="34.536" transform="translate(-0.503 138.234)" fill="#fff"/>
    <path id="Path_1453" data-name="Path 1453" d="M746.777,1706.142h-35.6v-34.536h-35.5V1637.07h71.3v34.536h-.2Z" transform="translate(-676.179 -1321.693)" fill="#fff"/>
  </g>
</svg>
