<svg xmlns="http://www.w3.org/2000/svg" width="499.803" height="597.691" viewBox="0 0 499.803 597.691">
  <g id="Group_392" data-name="Group 392" transform="translate(213.498 34.539)">
    <path id="Path_1448" data-name="Path 1448" d="M35.6,689H71.2v69.072H35.6v-34.54H0V654.46H35.6Z" transform="translate(215 -688.999)" fill="#fff"/>
    <path id="Path_1449" data-name="Path 1449" d="M372.161,34.536V69.072H336.355V34.536h35.6V0h71.41V34.536Z" transform="translate(-264.84 69.073)" fill="#fff"/>
    <path id="Path_1449-2" data-name="Path 1449" d="M407.559,34.536V0h35.806V34.536h-35.6V69.072h-71.41V34.536Z" transform="translate(-443.053 459.461)" fill="#fff"/>
    <rect id="Rectangle_15229" data-name="Rectangle 15229" width="35.602" height="34.536" transform="translate(35.914 183.073)" fill="#fff"/>
    <rect id="Rectangle_15229-2" data-name="Rectangle 15229" width="35.602" height="34.536" transform="translate(0.313 379.997)" fill="#fff"/>
    <rect id="Rectangle_15229-3" data-name="Rectangle 15229" width="35.602" height="34.536" transform="translate(-177.845 241.755)" fill="#fff"/>
    <path id="Path_1450" data-name="Path 1450" d="M1608.714,396.3h-35.5V327.23h35.6V396.3h71.306v34.536h-71.408Z" transform="translate(-1466.103 -109.621)" fill="#fff"/>
    <path id="Path_1450-2" data-name="Path 1450" d="M1644.62,361.766h35.5v69.07h-35.6v-69.07h-71.306V327.23h71.408Z" transform="translate(-1715.402 -50.839)" fill="#fff"/>
    <path id="Path_1451" data-name="Path 1451" d="M2320.9,1016.23v34.536h-35.6V1016.23h-35.5V981.69h35.6v34.536Z" transform="translate(-2178.285 -695.009)" fill="#fff"/>
    <path id="Path_1451-2" data-name="Path 1451" d="M2249.8,1016.23v34.536h35.6V1016.23h35.5V981.69h-35.6v34.536Z" transform="translate(-2463.086 -809.111)" fill="#fff"/>
    <rect id="Rectangle_15230" data-name="Rectangle 15230" width="35.602" height="69.072" transform="translate(71.41 355.851)" fill="#fff"/>
    <rect id="Rectangle_15230-2" data-name="Rectangle 15230" width="35.602" height="69.072" transform="translate(-35.183 172.683)" fill="#fff"/>
    <path id="Path_1452" data-name="Path 1452" d="M2657.428,2326.07h35.7v69.072H2621.72V2360.6h-35.5v-34.536h35.6V2360.6h35.5v-34.536h-35.5v-34.536h35.6Z" transform="translate(-2407.22 -1866.61)" fill="#fff"/>
    <rect id="Rectangle_15231" data-name="Rectangle 15231" width="35.806" height="34.536" transform="translate(107.011 528.616)" fill="#fff"/>
    <path id="Path_1453" data-name="Path 1453" d="M675.882,1637.07h35.6v34.536h35.5v34.536h-71.3v-34.536h.2Z" transform="translate(-460.677 -1453.999)" fill="#fff"/>
    <path id="Path_1453-2" data-name="Path 1453" d="M746.777,1706.142h-35.6v-34.536h-35.5V1637.07h71.305v34.536h-.2Z" transform="translate(-889.176 -1257.072)" fill="#fff"/>
  </g>
</svg>
