<svg xmlns="http://www.w3.org/2000/svg" width="285.326" height="563.152" viewBox="0 0 285.326 563.152">
  <g id="Group_392" data-name="Group 392" transform="translate(380.059 380.079) rotate(180)">
    <path id="Path_1448" data-name="Path 1448" d="M35.6,689H0v69.072H35.6v-34.54H71.2V654.46H35.6Z" transform="translate(166.037 -837.533)" fill="#fff"/>
    <path id="Path_1449" data-name="Path 1449" d="M407.559,34.536V69.072h35.806V34.536h-35.6V0h-71.41V34.536Z" transform="translate(-63.307 -114)" fill="#fff"/>
    <rect id="Rectangle_15229" data-name="Rectangle 15229" width="35.602" height="34.536" transform="translate(272.945)" fill="#fff"/>
    <path id="Path_1450" data-name="Path 1450" d="M1644.62,396.3h35.5V327.23h-35.6V396.3h-71.306v34.536h71.408Z" transform="translate(-1407.173 -292.694)" fill="#fff"/>
    <path id="Path_1451" data-name="Path 1451" d="M2249.8,1016.23v34.536h35.6V1016.23h35.5V981.69h-35.6v34.536Z" transform="translate(-2012.357 -878.082)" fill="#fff"/>
    <rect id="Rectangle_15230" data-name="Rectangle 15230" width="35.602" height="69.072" transform="translate(344.256 172.778)" fill="#009d00"/>
    <path id="Path_1452" data-name="Path 1452" d="M2621.92,2326.07h-35.7v69.072h71.408V2360.6h35.5v-34.536h-35.6V2360.6h-35.5v-34.536h35.5v-34.536h-35.6Z" transform="translate(-2313.263 -2049.683)" fill="#fff"/>
    <rect id="Rectangle_15231" data-name="Rectangle 15231" width="35.806" height="34.536" transform="translate(237.241 345.543)" fill="#009d00"/>
    <path id="Path_1453" data-name="Path 1453" d="M746.777,1637.07h-35.6v34.536h-35.5v34.536h71.3v-34.536h-.2Z" transform="translate(-580.945 -1637.072)" fill="#fff"/>
  </g>
</svg>
